:SAMPLES-PER-SECOND 30
:FULLY-SPECIFIED
:DEGREES
615
root  -3.09397 40.9616 0.901152 -0.14386 -85.0105 0.765472
RightUpLeg  5.83165 -0.93469 -0.182969
RightLeg  -4.81428 -21.6213 1.86591
RightFoot  -0.85497 -0.171989 1.98112
RightToes  -3.10678e-008 1.75238e-005 3.56266e-009
Spine  -1.57909 1.95989 2.03983
Spine1  1.91654 2.81332 -4.63265
HEad  -1.2716 -7.55293 9.05266
LeftShoulder1  1.98062 -2.86798 -24.8965
LeftArm  -42.6536 28.7115 -52.3326
LeftForeArm  62.2707 -14.8568 -1.78041
LeftHand  -0.834778 -2.88975 11.9162
RightShoulder  -0.502117 -7.51272 4.51398
RightArm  -63.1621 26.6572 -9.72156
RightForeArm  128.39 62.9476 156.629
RightHand  -0.199124 11.3488 -1.8026
LeftUpLeg  2.88395 0.972443 2.08488
LeftLeg  -2.12861 9.47588 -0.732276
LeftFoot  -0.676437 0.235903 -2.47674
LeftToes  4.76857e-008 1.46588e-008 1.31384e-009
616
root  -3.09269 40.9581 0.925573 -0.114899 -85.0683 0.711334
RightUpLeg  5.79698 -0.965963 -0.224392
RightLeg  -4.67722 -21.5202 1.81189
RightFoot  -0.927454 -0.169699 1.95339
RightToes  -3.10678e-008 1.75238e-005 3.56266e-009
Spine  -1.58714 2.0229 1.86858
Spine1  2.00341 2.81042 -4.23667
HEad  -1.22793 -7.47993 8.97615
LeftShoulder1  1.93865 -2.71395 -24.9943
LeftArm  -42.1733 28.6782 -52.3378
LeftForeArm  61.7598 -15.2065 -1.97656
LeftHand  -0.800783 -2.78386 11.5859
RightShoulder  -0.464535 -7.26673 4.31827
RightArm  -63.5694 26.905 -9.48038
RightForeArm  128.242 62.7918 156.763
RightHand  -0.15642 11.2219 -1.5135
LeftUpLeg  2.86182 1.03416 2.08796
LeftLeg  -2.00119 9.43742 -0.777648
LeftFoot  -0.781001 0.234518 -2.46487
LeftToes  4.76857e-008 1.46588e-008 1.31384e-009
617
root  -3.09068 40.9579 0.947212 -0.0278931 -85.1034 0.604767
RightUpLeg  5.83725 -0.962652 -0.238669
RightLeg  -4.72646 -21.491 1.81053
RightFoot  -0.901404 -0.168202 1.93713
RightToes  -3.10678e-008 1.75238e-005 3.56266e-009
Spine  -1.72586 2.07473 1.90481
Spine1  2.25023 2.86438 -4.21566
HEad  -1.23551 -7.3331 8.9211
LeftShoulder1  1.89067 -2.56227 -24.9809
LeftArm  -41.9436 28.4048 -52.2628
LeftForeArm  61.8588 -15.0824 -2.02362
LeftHand  -0.842565 -2.75493 12.2156
RightShoulder  -0.454046 -7.13426 4.49406
RightArm  -63.7997 26.9858 -9.55186
RightForeArm  128.147 62.9192 156.634
RightHand  -0.143056 11.3273 -1.41557
LeftUpLeg  2.86263 1.02189 2.05592
LeftLeg  -1.94917 9.48831 -0.763162
LeftFoot  -0.828052 0.232981 -2.45101
LeftToes  4.76857e-008 1.46588e-008 1.31384e-009
618
root  -3.0958 40.9573 0.968394 0.11026 -85.1609 0.491089
RightUpLeg  5.84557 -0.966075 -0.269354
RightLeg  -4.79071 -21.4315 1.83254
RightFoot  -0.851876 -0.172341 2.00751
RightToes  -3.10678e-008 1.75238e-005 3.56266e-009
Spine  -1.79552 2.13527 2.17094
Spine1  2.30758 2.98118 -4.56088
HEad  -1.06473 -7.41656 9.02614
LeftShoulder1  1.86258 -2.48849 -24.8919
LeftArm  -41.9029 28.2019 -52.1594
LeftForeArm  61.673 -14.945 -2.03613
LeftHand  -0.859355 -2.63117 12.6337
RightShoulder  -0.45127 -7.0955 4.79339
RightArm  -63.8042 26.9354 -9.68229
RightForeArm  128.037 62.9893 156.558
RightHand  -0.167173 11.1452 -1.59179
LeftUpLeg  2.85783 1.00283 2.02413
LeftLeg  -1.95563 9.56591 -0.76071
LeftFoot  -0.849989 0.229947 -2.4118
LeftToes  4.76857e-008 1.46588e-008 1.31384e-009
619
root  -3.09778 40.9564 0.987817 -0.151886 -85.0962 0.799133
RightUpLeg  5.77512 -0.958233 -0.302801
RightLeg  -4.71361 -21.5087 1.76596
RightFoot  -0.886253 -0.17647 2.07696
RightToes  -3.10678e-008 1.75238e-005 3.56266e-009
Spine  -1.8337 2.15139 2.25579
Spine1  2.30547 3.0259 -4.71851
HEad  -1.11239 -7.12368 9.08963
LeftShoulder1  1.85764 -2.48427 -24.8285
LeftArm  -42.0133 28.0871 -52.1517
LeftForeArm  61.6406 -14.8998 -1.98474
LeftHand  -0.806467 -2.38528 12.2373
RightShoulder  -0.451906 -7.07802 4.91138
RightArm  -63.6147 26.9475 -9.62527
RightForeArm  128.035 63.1096 156.443
RightHand  -0.10248 11.3411 -1.13207
LeftUpLeg  2.79848 0.941422 1.9522
LeftLeg  -1.94371 9.5833 -0.74517
LeftFoot  -0.840633 0.22855 -2.39522
LeftToes  4.76857e-008 1.46588e-008 1.31384e-009
620
root  -3.10449 40.9555 1.00944 -0.590576 -84.9668 1.22165
RightUpLeg  5.76397 -0.986496 -0.366315
RightLeg  -4.57861 -21.5935 1.69372
RightFoot  -0.942975 -0.187208 2.2482
RightToes  -3.10678e-008 1.75238e-005 3.56266e-009
Spine  -1.85659 2.11751 2.43215
Spine1  2.36609 3.04621 -5.0205
HEad  -1.17211 -7.07566 9.15134
LeftShoulder1  1.85914 -2.52373 -24.642
LeftArm  -42.1915 28.0455 -52.2989
LeftForeArm  61.9363 -14.7764 -1.92377
LeftHand  -0.879907 -2.91229 12.5073
RightShoulder  -0.45415 -7.04235 4.96524
RightArm  -63.4206 26.87 -9.53093
RightForeArm  128.355 63.1069 156.475
RightHand  -0.149127 11.7035 -1.43821
LeftUpLeg  2.81669 0.896201 1.87975
LeftLeg  -1.95056 9.51078 -0.74595
LeftFoot  -0.864077 0.231684 -2.44865
LeftToes  4.76857e-008 1.46588e-008 1.31384e-009
621
root  -3.1143 40.9548 1.02337 -0.252869 -84.8961 0.9039
RightUpLeg  5.80624 -0.984096 -0.346272
RightLeg  -4.67834 -21.6621 1.74114
RightFoot  -0.923076 -0.172885 2.02988
RightToes  -3.10678e-008 1.75238e-005 3.56266e-009
Spine  -1.88299 2.10041 2.64281
Spine1  2.35812 3.07684 -5.3344
HEad  -1.2561 -7.17419 9.23102
LeftShoulder1  1.84975 -2.53318 -24.4293
LeftArm  -42.3561 28.1125 -52.474
LeftForeArm  62.1359 -14.6215 -1.90331
LeftHand  -1.0113 -3.9479 12.8074
RightShoulder  -0.456148 -6.94998 5.20934
RightArm  -63.2113 26.7239 -9.77093
RightForeArm  128.027 63.0437 156.506
RightHand  -0.10934 11.4204 -1.17944
LeftUpLeg  2.78084 0.930684 1.90391
LeftLeg  -1.90222 9.41271 -0.756942
LeftFoot  -0.891189 0.230723 -2.43795
LeftToes  4.76857e-008 1.46588e-008 1.31384e-009
